<svg width="1149" height="1152" viewBox="0 0 1149 1152" fill="none" xmlns="http://www.w3.org/2000/svg">
<path d="M920.708 228.816C875.315 158.65 813.156 100.966 739.877 61.0062C666.599 21.046 584.524 0.0756334 501.108 0C368.259 0.133394 240.888 53.0993 146.943 147.276C52.9984 241.453 0.152087 369.148 0 502.344C0.05928 586.009 20.9747 668.332 60.8446 741.829C100.715 815.327 158.275 877.668 228.292 923.184C273.685 993.35 335.844 1051.03 409.123 1090.99C482.401 1130.95 564.476 1151.92 647.892 1152C780.741 1151.87 908.112 1098.9 1002.06 1004.72C1096 910.547 1148.85 782.852 1149 649.656C1148.94 565.991 1128.03 483.668 1088.16 410.171C1048.29 336.673 990.725 274.332 920.708 228.816ZM930.259 502.416C930.145 616.509 884.899 725.899 804.446 806.589C723.994 887.279 614.904 932.68 501.108 932.832C387.28 932.699 278.153 887.299 197.672 806.593C117.19 725.888 71.9265 616.469 71.8125 502.344C71.9456 388.238 117.22 278.845 197.701 198.167C278.183 117.488 387.299 72.1143 501.108 72C614.897 72.1334 723.987 117.518 804.442 198.197C884.897 278.875 930.145 388.329 930.259 502.416ZM647.892 1080C553.813 1080.03 462.363 1048.87 387.787 991.368C424.836 1000.12 462.758 1004.61 500.82 1004.76C633.657 1004.59 761.001 951.596 854.917 857.408C948.833 763.219 1001.65 635.527 1001.78 502.344C1001.78 464.123 997.419 426.028 988.786 388.8C1046.15 463.593 1077.23 555.307 1077.19 649.656C1077.05 763.762 1031.78 873.155 951.299 953.833C870.817 1034.51 761.701 1079.89 647.892 1080ZM465.201 180V216H430.875C392.783 216 356.252 231.171 329.317 258.177C302.382 285.182 287.25 321.809 287.25 360C287.25 398.191 302.382 434.818 329.317 461.823C356.252 488.829 392.783 504 430.875 504H465.201V684H448.828C425.032 683.962 402.222 674.468 385.396 657.598C368.57 640.728 359.1 617.858 359.062 594C359.062 584.452 355.28 575.295 348.546 568.544C341.812 561.793 332.679 558 323.156 558C313.633 558 304.5 561.793 297.767 568.544C291.033 575.295 287.25 584.452 287.25 594C287.307 636.948 304.349 678.12 334.638 708.488C364.928 738.857 405.992 755.943 448.828 756H465.201V828C465.201 837.548 468.984 846.705 475.718 853.456C482.452 860.207 491.585 864 501.108 864C510.631 864 519.763 860.207 526.497 853.456C533.231 846.705 537.014 837.548 537.014 828V756H556.547C599.383 755.943 640.448 738.857 670.737 708.488C701.026 678.12 718.068 636.948 718.125 594C718.068 551.052 701.026 509.88 670.737 479.512C640.448 449.143 599.383 432.057 556.547 432H537.014V288H574.5C593.546 288 611.812 295.586 625.279 309.088C638.747 322.591 646.312 340.904 646.312 360V396C646.312 405.548 650.095 414.705 656.829 421.456C663.563 428.207 672.696 432 682.219 432C691.742 432 700.875 428.207 707.608 421.456C714.342 414.705 718.125 405.548 718.125 396V360C718.125 321.809 702.993 285.182 676.058 258.177C649.123 231.171 612.592 216 574.5 216H537.014V180C537.014 170.452 533.231 161.295 526.497 154.544C519.763 147.793 510.631 144 501.108 144C491.585 144 482.452 147.793 475.718 154.544C468.984 161.295 465.201 170.452 465.201 180ZM646.312 594C646.275 617.858 636.805 640.728 619.979 657.598C603.153 674.468 580.343 683.962 556.547 684H537.014V504H556.547C580.343 504.038 603.153 513.532 619.979 530.402C636.805 547.272 646.275 570.142 646.312 594ZM465.201 432H430.875C411.829 432 393.563 424.414 380.096 410.912C366.628 397.409 359.062 379.096 359.062 360C359.062 340.904 366.628 322.591 380.096 309.088C393.563 295.586 411.829 288 430.875 288H465.201V432Z" fill="#FFE500"/>
</svg>
